<mxfile host="app.diagrams.net" agent="Mozilla/5.0 (Windows NT 10.0; Win64; x64) AppleWebKit/537.36 (KHTML, like Gecko) Chrome/131.0.0.0 Safari/537.36" version="24.9.3">
  <diagram name="Сторінка-1" id="OouusAZS5yYadW6CLFac">
    <mxGraphModel dx="2150" dy="942" grid="1" gridSize="10" guides="1" tooltips="1" connect="1" arrows="1" fold="1" page="1" pageScale="1" pageWidth="827" pageHeight="1169" math="0" shadow="0">
      <root>
        <mxCell id="0" />
        <mxCell id="1" parent="0" />
        <mxCell id="qFPuwhPfKeAlM4vhxPof-3" value="" style="edgeStyle=orthogonalEdgeStyle;rounded=0;orthogonalLoop=1;jettySize=auto;html=1;" edge="1" parent="1" source="qFPuwhPfKeAlM4vhxPof-1" target="qFPuwhPfKeAlM4vhxPof-2">
          <mxGeometry relative="1" as="geometry" />
        </mxCell>
        <mxCell id="qFPuwhPfKeAlM4vhxPof-1" value="Start" style="ellipse;whiteSpace=wrap;html=1;" vertex="1" parent="1">
          <mxGeometry x="350" y="90" width="120" height="80" as="geometry" />
        </mxCell>
        <mxCell id="qFPuwhPfKeAlM4vhxPof-5" value="" style="edgeStyle=orthogonalEdgeStyle;rounded=0;orthogonalLoop=1;jettySize=auto;html=1;" edge="1" parent="1" source="qFPuwhPfKeAlM4vhxPof-2" target="qFPuwhPfKeAlM4vhxPof-4">
          <mxGeometry relative="1" as="geometry" />
        </mxCell>
        <mxCell id="qFPuwhPfKeAlM4vhxPof-2" value="output &quot;Таблиця множення на &quot;&amp;nbsp;" style="shape=parallelogram;perimeter=parallelogramPerimeter;whiteSpace=wrap;html=1;fixedSize=1;" vertex="1" parent="1">
          <mxGeometry x="350" y="203" width="120" height="60" as="geometry" />
        </mxCell>
        <mxCell id="qFPuwhPfKeAlM4vhxPof-7" value="" style="edgeStyle=orthogonalEdgeStyle;rounded=0;orthogonalLoop=1;jettySize=auto;html=1;" edge="1" parent="1" source="qFPuwhPfKeAlM4vhxPof-4" target="qFPuwhPfKeAlM4vhxPof-6">
          <mxGeometry relative="1" as="geometry" />
        </mxCell>
        <mxCell id="qFPuwhPfKeAlM4vhxPof-4" value="input number" style="shape=parallelogram;perimeter=parallelogramPerimeter;whiteSpace=wrap;html=1;fixedSize=1;" vertex="1" parent="1">
          <mxGeometry x="350" y="292" width="120" height="60" as="geometry" />
        </mxCell>
        <mxCell id="qFPuwhPfKeAlM4vhxPof-9" value="" style="edgeStyle=orthogonalEdgeStyle;rounded=0;orthogonalLoop=1;jettySize=auto;html=1;" edge="1" parent="1" source="qFPuwhPfKeAlM4vhxPof-6" target="qFPuwhPfKeAlM4vhxPof-8">
          <mxGeometry relative="1" as="geometry" />
        </mxCell>
        <mxCell id="qFPuwhPfKeAlM4vhxPof-6" value="i = 1" style="whiteSpace=wrap;html=1;" vertex="1" parent="1">
          <mxGeometry x="350" y="372" width="120" height="60" as="geometry" />
        </mxCell>
        <mxCell id="qFPuwhPfKeAlM4vhxPof-11" value="" style="edgeStyle=orthogonalEdgeStyle;rounded=0;orthogonalLoop=1;jettySize=auto;html=1;" edge="1" parent="1" source="qFPuwhPfKeAlM4vhxPof-8" target="qFPuwhPfKeAlM4vhxPof-10">
          <mxGeometry relative="1" as="geometry" />
        </mxCell>
        <mxCell id="qFPuwhPfKeAlM4vhxPof-8" value="i &amp;lt;= 10" style="rhombus;whiteSpace=wrap;html=1;" vertex="1" parent="1">
          <mxGeometry x="370" y="469" width="80" height="80" as="geometry" />
        </mxCell>
        <mxCell id="qFPuwhPfKeAlM4vhxPof-12" style="edgeStyle=orthogonalEdgeStyle;rounded=0;orthogonalLoop=1;jettySize=auto;html=1;entryX=0;entryY=0.5;entryDx=0;entryDy=0;" edge="1" parent="1" source="qFPuwhPfKeAlM4vhxPof-10" target="qFPuwhPfKeAlM4vhxPof-8">
          <mxGeometry relative="1" as="geometry">
            <Array as="points">
              <mxPoint x="305" y="600" />
              <mxPoint x="305" y="509" />
            </Array>
          </mxGeometry>
        </mxCell>
        <mxCell id="qFPuwhPfKeAlM4vhxPof-14" value="" style="edgeStyle=orthogonalEdgeStyle;rounded=0;orthogonalLoop=1;jettySize=auto;html=1;" edge="1" parent="1" source="qFPuwhPfKeAlM4vhxPof-10" target="qFPuwhPfKeAlM4vhxPof-13">
          <mxGeometry relative="1" as="geometry" />
        </mxCell>
        <mxCell id="qFPuwhPfKeAlM4vhxPof-10" value="output number, &quot; * &quot;,&lt;div&gt;&amp;nbsp;i, &quot; = &quot;, number * i&amp;nbsp;&lt;/div&gt;" style="shape=parallelogram;perimeter=parallelogramPerimeter;whiteSpace=wrap;html=1;fixedSize=1;" vertex="1" parent="1">
          <mxGeometry x="325" y="579" width="170" height="50" as="geometry" />
        </mxCell>
        <mxCell id="qFPuwhPfKeAlM4vhxPof-13" value="The end" style="ellipse;whiteSpace=wrap;html=1;" vertex="1" parent="1">
          <mxGeometry x="365" y="680" width="90" height="46" as="geometry" />
        </mxCell>
      </root>
    </mxGraphModel>
  </diagram>
</mxfile>
